<mxfile host="app.diagrams.net" modified="2024-01-19T08:25:29.091Z" agent="Mozilla/5.0 (Windows NT 10.0; Win64; x64) AppleWebKit/537.36 (KHTML, like Gecko) Chrome/120.0.0.0 Safari/537.36 Edg/120.0.0.0" etag="6EJr48CLEYL1wAE144nl" version="22.1.21" type="github">
  <diagram name="TEAM-1" id="xMrl9BoHdBr8t4EEI67D">
    <mxGraphModel dx="786" dy="729" grid="1" gridSize="10" guides="1" tooltips="1" connect="1" arrows="1" fold="1" page="1" pageScale="1" pageWidth="850" pageHeight="1100" math="0" shadow="0">
      <root>
        <mxCell id="0" />
        <mxCell id="1" parent="0" />
        <mxCell id="xFF283TL191S3pq5xtMK-1" value="&lt;h1&gt;&lt;p style=&quot;border-color: var(--border-color);&quot;&gt;Regional Retail Expansion&lt;/p&gt;&lt;/h1&gt;&lt;p&gt;&lt;b&gt;&lt;font style=&quot;font-size: 14px;&quot;&gt;Challenge&lt;/font&gt;&lt;/b&gt;:&lt;/p&gt;&lt;p&gt;You are tasked with designing a secure and scalable AWS architecture for a retail company expanding its operations to regional branches. The on-premises data center houses critical legacy systems. Each AWS account represents a regional branch with its own resources.&lt;/p&gt;&lt;p&gt;&lt;br&gt;&lt;/p&gt;&lt;p style=&quot;font-size: 14px;&quot;&gt;&lt;font style=&quot;font-size: 14px;&quot;&gt;&lt;b&gt;Objective:&lt;/b&gt;&lt;/font&gt;&lt;/p&gt;&lt;p style=&quot;font-size: 14px;&quot;&gt;&lt;/p&gt;&lt;ol&gt;&lt;li&gt;Create an AWS architecture diagram:&lt;/li&gt;&lt;li&gt;Establish secure VPN connections from the on-premises data center.&lt;/li&gt;&lt;li&gt;Centralize network management using AWS Transit Gateway.&lt;/li&gt;&lt;li&gt;Ensure efficient communication between the on-premises data center and regional branches.&lt;/li&gt;&lt;li&gt;Enable future scalability for additional regional expansions.&lt;/li&gt;&lt;/ol&gt;&lt;p&gt;&lt;/p&gt;&lt;p style=&quot;font-size: 13px;&quot;&gt;&lt;b&gt;&lt;i&gt;&lt;font style=&quot;font-size: 13px;&quot;&gt;Note to Students:&lt;/font&gt;&lt;/i&gt;&lt;/b&gt;&lt;/p&gt;&lt;p style=&quot;font-size: 13px;&quot;&gt;Design a clear and concise diagram illustrating the components, connections, and route tables to meet the company&#39;s objectives. Consider security, scalability, and efficiency in your design.&lt;/p&gt;" style="text;html=1;strokeColor=none;fillColor=none;spacing=5;spacingTop=-20;whiteSpace=wrap;overflow=hidden;rounded=0;" vertex="1" parent="1">
          <mxGeometry x="40" y="40" width="740" height="390" as="geometry" />
        </mxCell>
      </root>
    </mxGraphModel>
  </diagram>
</mxfile>
